<svg width="37" height="37" viewBox="0 0 37 37" fill="none" xmlns="http://www.w3.org/2000/svg">
<path fill-rule="evenodd" clip-rule="evenodd" d="M29.2917 16.9583H20.0417V7.70829C20.0417 6.85575 19.3511 6.16663 18.5001 6.16663C17.6491 6.16663 16.9584 6.85575 16.9584 7.70829V16.9583H7.70841C6.85741 16.9583 6.16675 17.6474 6.16675 18.5C6.16675 19.3525 6.85741 20.0416 7.70841 20.0416H16.9584V29.2916C16.9584 30.1442 17.6491 30.8333 18.5001 30.8333C19.3511 30.8333 20.0417 30.1442 20.0417 29.2916V20.0416H29.2917C30.1427 20.0416 30.8334 19.3525 30.8334 18.5C30.8334 17.6474 30.1427 16.9583 29.2917 16.9583Z" fill="white"/>
</svg>
